<svg width="272" height="50" viewBox="0 0 272 50" fill="none" xmlns="http://www.w3.org/2000/svg">
<rect x="1.5" y="1.5" width="269" height="47" rx="23.5" stroke="white" stroke-width="3"/>
<path d="M36.688 30.192C38.64 30.192 40.256 29.488 41.312 28.192L39.648 26.656C38.896 27.536 37.952 27.984 36.832 27.984C34.736 27.984 33.248 26.512 33.248 24.4C33.248 22.288 34.736 20.816 36.832 20.816C37.952 20.816 38.896 21.264 39.648 22.128L41.312 20.592C40.256 19.312 38.64 18.608 36.704 18.608C33.216 18.608 30.624 21.024 30.624 24.4C30.624 27.776 33.216 30.192 36.688 30.192ZM50.7614 24.16C51.7534 23.68 52.3454 22.832 52.3454 21.696C52.3454 19.84 50.8094 18.8 48.2174 18.8H43.0014V30H48.5214C51.3534 30 52.8734 28.8 52.8734 26.848C52.8734 25.488 52.1214 24.56 50.7614 24.16ZM45.5774 20.72H47.9934C49.1134 20.72 49.7054 21.2 49.7054 22.08C49.7054 22.976 49.1134 23.44 47.9934 23.44H45.5774V20.72ZM48.4254 28.08H45.5774V25.248H48.4254C49.6254 25.248 50.2494 25.696 50.2494 26.64C50.2494 27.616 49.6254 28.08 48.4254 28.08ZM58.879 18.8C55.919 18.8 54.047 20.368 54.047 22.976C54.047 24.736 54.895 26.016 56.399 26.624L54.063 30H56.799L58.783 27.024H61.151V30H63.711V18.8H58.879ZM58.943 20.912H61.151V24.976H58.879C57.423 24.976 56.671 24.24 56.671 22.944C56.671 21.6 57.471 20.912 58.943 20.912ZM72.885 24.16C73.877 23.728 74.501 22.864 74.501 21.776C74.501 19.744 72.261 18.56 69.669 18.56C68.389 18.56 67.045 18.848 65.829 19.472L66.613 21.488C67.573 20.944 68.677 20.688 69.621 20.688C70.885 20.688 71.877 21.168 71.877 22.08C71.877 22.816 71.269 23.28 70.213 23.28H67.669V25.232H70.405C71.573 25.232 72.341 25.648 72.341 26.496C72.341 27.536 71.141 28.08 69.669 28.08C68.581 28.08 67.333 27.792 66.309 27.168L65.509 29.024C66.901 29.824 68.485 30.192 69.973 30.192C72.661 30.192 74.965 28.976 74.965 26.864C74.965 25.6 74.181 24.608 72.885 24.16ZM85.593 30H88.313L83.305 18.8H80.745L75.753 30H78.409L79.401 27.6H84.601L85.593 30ZM80.233 25.632L82.009 21.344L83.785 25.632H80.233ZM97.7958 18.8H88.0838V20.912H91.6518V30H94.2118V20.912H97.7958V18.8ZM104.847 22.48H101.999V18.8H99.4233V30H104.479C107.359 30 109.087 28.672 109.087 26.096C109.087 23.68 107.551 22.48 104.847 22.48ZM104.335 28.08H101.999V24.4H104.335C105.679 24.4 106.479 24.912 106.479 26.144C106.479 27.408 105.663 28.08 104.335 28.08ZM116.251 30.192C118.203 30.192 119.819 29.488 120.875 28.192L119.211 26.656C118.459 27.536 117.515 27.984 116.395 27.984C114.299 27.984 112.811 26.512 112.811 24.4C112.811 22.288 114.299 20.816 116.395 20.816C117.515 20.816 118.459 21.264 119.211 22.128L120.875 20.592C119.819 19.312 118.203 18.608 116.267 18.608C112.779 18.608 110.187 21.024 110.187 24.4C110.187 27.776 112.779 30.192 116.251 30.192ZM126.457 18.8C123.497 18.8 121.625 20.368 121.625 22.976C121.625 24.736 122.473 26.016 123.977 26.624L121.641 30H124.377L126.361 27.024H128.729V30H131.289V18.8H126.457ZM126.521 20.912H128.729V24.976H126.457C125.001 24.976 124.249 24.24 124.249 22.944C124.249 21.6 125.049 20.912 126.521 20.912ZM146.386 24.16C147.378 23.68 147.97 22.832 147.97 21.696C147.97 19.84 146.434 18.8 143.842 18.8H138.626V30H144.146C146.978 30 148.498 28.8 148.498 26.848C148.498 25.488 147.746 24.56 146.386 24.16ZM141.202 20.72H143.618C144.738 20.72 145.33 21.2 145.33 22.08C145.33 22.976 144.738 23.44 143.618 23.44H141.202V20.72ZM144.05 28.08H141.202V25.248H144.05C145.25 25.248 145.874 25.696 145.874 26.64C145.874 27.616 145.25 28.08 144.05 28.08ZM157.796 30H160.74L156.964 24.208L160.628 18.8H157.892L154.948 23.328H153.092V18.8H150.516V30H153.092V25.488H154.884L157.796 30ZM167.252 30.192C170.772 30.192 173.38 27.744 173.38 24.4C173.38 21.056 170.772 18.608 167.252 18.608C163.716 18.608 161.124 21.072 161.124 24.4C161.124 27.728 163.716 30.192 167.252 30.192ZM167.252 27.984C165.252 27.984 163.748 26.528 163.748 24.4C163.748 22.272 165.252 20.816 167.252 20.816C169.252 20.816 170.756 22.272 170.756 24.4C170.756 26.528 169.252 27.984 167.252 27.984ZM183.056 18.8V23.216H177.968V18.8H175.376V30H177.968V25.408H183.056V30H185.648V18.8H183.056ZM197.015 18.8H187.303V20.912H190.871V30H193.431V20.912H197.015V18.8ZM206.656 30H209.376L204.368 18.8H201.808L196.816 30H199.472L200.464 27.6H205.664L206.656 30ZM201.296 25.632L203.072 21.344L204.848 25.632H201.296ZM218.109 30H221.053L217.277 24.208L220.941 18.8H218.205L215.261 23.328H213.405V18.8H210.829V30H213.405V25.488H215.197L218.109 30ZM230.702 18.8H220.99V20.912H224.558V30H227.118V20.912H230.702V18.8ZM234.906 27.92V25.328H240.106V23.312H234.906V20.88H240.794V18.8H232.33V30H241.002V27.92H234.906Z" fill="white"/>
</svg>
