<svg width="301" height="61" viewBox="0 0 301 61" fill="none" xmlns="http://www.w3.org/2000/svg">
<rect x="1.5" y="1.5" width="298" height="58" rx="29" stroke="#275BEC" stroke-width="3"/>
<path d="M38.8 30.72H34.048L35.712 27.968H33.552L31.184 31.584L33.552 35.2H35.712L34.048 32.448H38.8V30.72ZM53.277 30.16C54.269 29.68 54.861 28.832 54.861 27.696C54.861 25.84 53.325 24.8 50.733 24.8H45.517V36H51.037C53.869 36 55.389 34.8 55.389 32.848C55.389 31.488 54.637 30.56 53.277 30.16ZM48.093 26.72H50.509C51.629 26.72 52.221 27.2 52.221 28.08C52.221 28.976 51.629 29.44 50.509 29.44H48.093V26.72ZM50.941 34.08H48.093V31.248H50.941C52.141 31.248 52.765 31.696 52.765 32.64C52.765 33.616 52.141 34.08 50.941 34.08ZM60.0149 33.92V31.328H65.2149V29.312H60.0149V26.88H65.9029V24.8H57.4389V36H66.1109V33.92H60.0149ZM73.0525 24.8H68.2045V36H70.7965V32.912H73.0525C76.0445 32.912 77.9165 31.36 77.9165 28.864C77.9165 26.352 76.0445 24.8 73.0525 24.8ZM72.9085 30.8H70.7965V26.912H72.9085C74.4925 26.912 75.2925 27.632 75.2925 28.864C75.2925 30.08 74.4925 30.8 72.9085 30.8ZM87.3064 24.8V29.216H82.2184V24.8H79.6264V36H82.2184V31.408H87.3064V36H89.8984V24.8H87.3064ZM100.273 24.8L97.2005 30.816L94.2245 24.8H91.4565L95.8725 33.024L95.7765 33.152C95.3445 33.824 94.8485 34.112 94.2085 34.112C93.8725 34.112 93.5045 34.032 93.0885 33.904L92.4645 35.872C93.0885 36.128 93.6965 36.256 94.2885 36.256C95.7925 36.256 97.1205 35.392 98.0485 33.664L102.817 24.8H100.273ZM112.64 24.8H102.928V26.912H106.496V36H109.056V26.912H112.64V24.8ZM119.691 28.48H116.843V24.8H114.267V36H119.323C122.203 36 123.931 34.672 123.931 32.096C123.931 29.68 122.395 28.48 119.691 28.48ZM119.179 34.08H116.843V30.4H119.179C120.523 30.4 121.323 30.912 121.323 32.144C121.323 33.408 120.507 34.08 119.179 34.08ZM131.094 36.192C133.046 36.192 134.662 35.488 135.718 34.192L134.054 32.656C133.302 33.536 132.358 33.984 131.238 33.984C129.142 33.984 127.654 32.512 127.654 30.4C127.654 28.288 129.142 26.816 131.238 26.816C132.358 26.816 133.302 27.264 134.054 28.128L135.718 26.592C134.662 25.312 133.046 24.608 131.11 24.608C127.622 24.608 125.03 27.024 125.03 30.4C125.03 33.776 127.622 36.192 131.094 36.192ZM141.301 24.8C138.341 24.8 136.469 26.368 136.469 28.976C136.469 30.736 137.317 32.016 138.821 32.624L136.485 36H139.221L141.205 33.024H143.573V36H146.133V24.8H141.301ZM141.365 26.912H143.573V30.976H141.301C139.845 30.976 139.093 30.24 139.093 28.944C139.093 27.6 139.893 26.912 141.365 26.912ZM161.15 24.8V29.216H156.062V24.8H153.47V36H156.062V31.408H161.15V36H163.742V24.8H161.15ZM175.124 36H177.844L172.836 24.8H170.276L165.284 36H167.94L168.932 33.6H174.132L175.124 36ZM169.764 31.632L171.54 27.344L173.316 31.632H169.764ZM191.765 24.8H183.861V36H186.437L186.421 26.912H191.749L191.765 24.8ZM193.331 24.8L193.171 29.344C193.059 32.208 192.723 33.872 191.411 33.872C191.251 33.872 191.107 33.856 190.947 33.808L190.787 36C191.267 36.112 191.683 36.176 192.067 36.176C194.691 36.176 195.315 33.648 195.459 29.248L195.539 26.912H199.378V36H201.939V24.8H193.331ZM213.312 36H216.032L211.024 24.8H208.464L203.472 36H206.128L207.12 33.6H212.32L213.312 36ZM207.952 31.632L209.728 27.344L211.504 31.632H207.952ZM225.277 30.16C226.269 29.68 226.861 28.832 226.861 27.696C226.861 25.84 225.325 24.8 222.733 24.8H217.517V36H223.037C225.869 36 227.389 34.8 227.389 32.848C227.389 31.488 226.637 30.56 225.277 30.16ZM220.093 26.72H222.509C223.629 26.72 224.221 27.2 224.221 28.08C224.221 28.976 223.629 29.44 222.509 29.44H220.093V26.72ZM222.941 34.08H220.093V31.248H222.941C224.141 31.248 224.765 31.696 224.765 32.64C224.765 33.616 224.141 34.08 222.941 34.08ZM237.119 24.8V29.216H232.031V24.8H229.439V36H232.031V31.408H237.119V36H239.711V24.8H237.119ZM250.085 24.8L247.013 30.816L244.037 24.8H241.269L245.685 33.024L245.589 33.152C245.157 33.824 244.661 34.112 244.021 34.112C243.685 34.112 243.317 34.032 242.901 33.904L242.277 35.872C242.901 36.128 243.509 36.256 244.101 36.256C245.605 36.256 246.933 35.392 247.861 33.664L252.629 24.8H250.085ZM263.749 24.608C260.757 24.608 258.469 26.48 257.941 29.2H256.437V24.8H253.861V36H256.437V31.44H257.909C258.373 34.24 260.709 36.192 263.749 36.192C267.157 36.192 269.669 33.744 269.669 30.4C269.669 27.056 267.157 24.608 263.749 24.608ZM263.749 33.984C261.893 33.984 260.453 32.544 260.453 30.4C260.453 28.256 261.893 26.816 263.749 26.816C265.605 26.816 267.045 28.256 267.045 30.4C267.045 32.544 265.605 33.984 263.749 33.984Z" fill="#275BEC"/>
</svg>
